<svg width="24" height="24" viewBox="0 0 24 24" fill="none" xmlns="http://www.w3.org/2000/svg">
<path d="M6.5 6.49414L8 7.99414M17 6.99414L16 7.99414M16 15.9941L17.5 17.4941M8 15.9941L7 16.9941M17 11.9941C17 14.7556 14.7614 16.9941 12 16.9941C9.23858 16.9941 7 14.7556 7 11.9941C7 9.23272 9.23858 6.99414 12 6.99414C14.7614 6.99414 17 9.23272 17 11.9941ZM7 3.99414C7 5.65099 5.65685 6.99414 4 6.99414C2.34315 6.99414 1 5.65099 1 3.99414C1 2.33729 2.34315 0.994141 4 0.994141C5.65685 0.994141 7 2.33729 7 3.99414ZM21 4.99414C21 6.09871 20.1046 6.99414 19 6.99414C17.8954 6.99414 17 6.09871 17 4.99414C17 3.88957 17.8954 2.99414 19 2.99414C20.1046 2.99414 21 3.88957 21 4.99414ZM7 18.9941C7 20.0987 6.10457 20.9941 5 20.9941C3.89543 20.9941 3 20.0987 3 18.9941C3 17.8896 3.89543 16.9941 5 16.9941C6.10457 16.9941 7 17.8896 7 18.9941ZM23 19.9941C23 21.651 21.6569 22.9941 20 22.9941C18.3431 22.9941 17 21.651 17 19.9941C17 18.3373 18.3431 16.9941 20 16.9941C21.6569 16.9941 23 18.3373 23 19.9941Z" stroke="#723FFF" stroke-width="2" stroke-linecap="round"/>
</svg>
